HIERARCHY
ROOT Root
{
  OFFSET 0.0 0.0 0.0
  CHANNELS 6 Xposition Yposition Zposition Zrotation Yrotation Xrotation
  JOINT Hips
  {
    OFFSET 0.0 100.0 0.0
    CHANNELS 6 Xposition Yposition Zposition Zrotation Yrotation Xrotation
    JOINT Spine1
    {
      OFFSET -0.013727 5.003763 -0.053727
      CHANNELS 3 Zrotation Yrotation Xrotation
      JOINT Spine2
      {
        OFFSET -0.0 7.125301 -0.029825
        CHANNELS 3 Zrotation Yrotation Xrotation
        JOINT Chest
        {
          OFFSET -1e-06 7.550063 -0.815971
          CHANNELS 3 Zrotation Yrotation Xrotation
          JOINT Neck1
          {
            OFFSET -0.181677 26.311295 -0.553348
            CHANNELS 3 Zrotation Yrotation Xrotation
            JOINT Neck2
            {
              OFFSET -3e-06 7.709397 2.302585
              CHANNELS 3 Zrotation Yrotation Xrotation
              JOINT Head
              {
                OFFSET -5e-06 6.128916 1.953709
                CHANNELS 3 Zrotation Yrotation Xrotation
                JOINT HeadEnd
                {
                  OFFSET 0.003598 16.065403 -1.835379
                  CHANNELS 3 Zrotation Yrotation Xrotation
                }
                JOINT Jaw
                {
                  OFFSET 0.002637 0.475592 3.094941
                  CHANNELS 3 Zrotation Yrotation Xrotation
                }
                JOINT LeftEye
                {
                  OFFSET 3.206381 5.380205 7.586883
                  CHANNELS 3 Zrotation Yrotation Xrotation
                }
                JOINT RightEye
                {
                  OFFSET -3.22244 5.361869 7.558234
                  CHANNELS 3 Zrotation Yrotation Xrotation
                }
              }
            }
          }
          JOINT LeftShoulder
          {
            OFFSET 1.621652 23.237164 5.113413
            CHANNELS 3 Zrotation Yrotation Xrotation
            JOINT LeftArm
            {
              OFFSET 14.919846 2e-06 -5.502326
              CHANNELS 3 Zrotation Yrotation Xrotation
              JOINT LeftForeArm
              {
                OFFSET 28.739307 0.0 -0.002588
                CHANNELS 3 Zrotation Yrotation Xrotation
                JOINT LeftHand
                {
                  OFFSET 27.093981 -1e-06 0.002609
                  CHANNELS 3 Zrotation Yrotation Xrotation
                  JOINT LeftHandThumb1
                  {
                    OFFSET 2.276482 -1.392045 3.191413
                    CHANNELS 3 Zrotation Yrotation Xrotation
                    JOINT LeftHandThumb2
                    {
                      OFFSET 4.012836 -1.828127 1.641654
                      CHANNELS 3 Zrotation Yrotation Xrotation
                      JOINT LeftHandThumb3
                      {
                        OFFSET 2.798515 0.0 -3e-06
                        CHANNELS 3 Zrotation Yrotation Xrotation
                        JOINT LeftHandThumbEnd
                        {
                          OFFSET 3.180793 -4e-06 4e-06
                          CHANNELS 3 Zrotation Yrotation Xrotation
                        }
                      }
                    }
                  }
                  JOINT LeftHandIndex1
                  {
                    OFFSET 3.247555 -0.531998 2.296169
                    CHANNELS 3 Zrotation Yrotation Xrotation
                    JOINT LeftHandIndex2
                    {
                      OFFSET 6.364578 0.01206 0.1786
                      CHANNELS 3 Zrotation Yrotation Xrotation
                      JOINT LeftHandIndex3
                      {
                        OFFSET 3.662364 0.0 0.0
                        CHANNELS 3 Zrotation Yrotation Xrotation
                        JOINT LeftHandIndex4
                        {
                          OFFSET 2.329242 4e-06 4e-06
                          CHANNELS 3 Zrotation Yrotation Xrotation
                          JOINT LeftHandIndexEnd
                          {
                            OFFSET 2.759615 -0.180537 -0.113024
                            CHANNELS 3 Zrotation Yrotation Xrotation
                          }
                        }
                      }
                    }
                  }
                  JOINT LeftHandMiddle1
                  {
                    OFFSET 3.163495 0.240981 1.000332
                    CHANNELS 3 Zrotation Yrotation Xrotation
                    JOINT LeftHandMiddle2
                    {
                      OFFSET 6.19078 -0.259278 -1.002548
                      CHANNELS 3 Zrotation Yrotation Xrotation
                      JOINT LeftHandMiddle3
                      {
                        OFFSET 4.35652 -4e-06 -1e-06
                        CHANNELS 3 Zrotation Yrotation Xrotation
                        JOINT LeftHandMiddle4
                        {
                          OFFSET 2.996877 -8e-06 0.0
                          CHANNELS 3 Zrotation Yrotation Xrotation
                          JOINT LeftHandMiddleEnd
                          {
                            OFFSET 2.304287 -0.294569 -0.031741
                            CHANNELS 3 Zrotation Yrotation Xrotation
                          }
                        }
                      }
                    }
                  }
                  JOINT LeftHandRing1
                  {
                    OFFSET 2.882643 -0.053652 -0.322543
                    CHANNELS 3 Zrotation Yrotation Xrotation
                    JOINT LeftHandRing2
                    {
                      OFFSET 5.854541 -0.486202 -1.373841
                      CHANNELS 3 Zrotation Yrotation Xrotation
                      JOINT LeftHandRing3
                      {
                        OFFSET 4.350578 0.0 3e-06
                        CHANNELS 3 Zrotation Yrotation Xrotation
                        JOINT LeftHandRing4
                        {
                          OFFSET 2.651321 7e-06 2e-06
                          CHANNELS 3 Zrotation Yrotation Xrotation
                          JOINT LeftHandRingEnd
                          {
                            OFFSET 1.936105 0.077687 -7.1e-05
                            CHANNELS 3 Zrotation Yrotation Xrotation
                          }
                        }
                      }
                    }
                  }
                  JOINT LeftHandPinky1
                  {
                    OFFSET 2.8655 -0.310005 -1.600378
                    CHANNELS 3 Zrotation Yrotation Xrotation
                    JOINT LeftHandPinky2
                    {
                      OFFSET 5.087849 -1.331141 -1.77123
                      CHANNELS 3 Zrotation Yrotation Xrotation
                      JOINT LeftHandPinky3
                      {
                        OFFSET 3.070974 4e-06 0.0
                        CHANNELS 3 Zrotation Yrotation Xrotation
                        JOINT LeftHandPinky4
                        {
                          OFFSET 1.549672 0.0 1e-06
                          CHANNELS 3 Zrotation Yrotation Xrotation
                          JOINT LeftHandPinkyEnd
                          {
                            OFFSET 1.944893 -0.157802 0.057219
                            CHANNELS 3 Zrotation Yrotation Xrotation
                          }
                        }
                      }
                    }
                  }
                }
              }
            }
          }
          JOINT RightShoulder
          {
            OFFSET -1.380118 23.180309 5.214158
            CHANNELS 3 Zrotation Yrotation Xrotation
            JOINT RightArm
            {
              OFFSET -15.037196 1.2e-05 -5.545604
              CHANNELS 3 Zrotation Yrotation Xrotation
              JOINT RightForeArm
              {
                OFFSET -28.736639 2e-06 -0.002597
                CHANNELS 3 Zrotation Yrotation Xrotation
                JOINT RightHand
                {
                  OFFSET -27.133619 -0.0 0.002613
                  CHANNELS 3 Zrotation Yrotation Xrotation
                  JOINT RightHandThumb1
                  {
                    OFFSET -2.274032 -1.383988 3.163127
                    CHANNELS 3 Zrotation Yrotation Xrotation
                    JOINT RightHandThumb2
                    {
                      OFFSET -4.011429 -1.827466 1.640914
                      CHANNELS 3 Zrotation Yrotation Xrotation
                      JOINT RightHandThumb3
                      {
                        OFFSET -2.794935 -4e-06 -3e-06
                        CHANNELS 3 Zrotation Yrotation Xrotation
                        JOINT RightHandThumbEnd
                        {
                          OFFSET -3.183852 4e-06 1e-06
                          CHANNELS 3 Zrotation Yrotation Xrotation
                        }
                      }
                    }
                  }
                  JOINT RightHandIndex1
                  {
                    OFFSET -3.253266 -0.520057 2.282866
                    CHANNELS 3 Zrotation Yrotation Xrotation
                    JOINT RightHandIndex2
                    {
                      OFFSET -6.341917 0.012471 0.178266
                      CHANNELS 3 Zrotation Yrotation Xrotation
                      JOINT RightHandIndex3
                      {
                        OFFSET -3.654871 -8e-06 -0.0
                        CHANNELS 3 Zrotation Yrotation Xrotation
                        JOINT RightHandIndex4
                        {
                          OFFSET -2.327586 0.0 1e-06
                          CHANNELS 3 Zrotation Yrotation Xrotation
                          JOINT RightHandIndexEnd
                          {
                            OFFSET -2.76179 -0.180656 -0.113078
                            CHANNELS 3 Zrotation Yrotation Xrotation
                          }
                        }
                      }
                    }
                  }
                  JOINT RightHandMiddle1
                  {
                    OFFSET -3.168106 0.246593 1.00103
                    CHANNELS 3 Zrotation Yrotation Xrotation
                    JOINT RightHandMiddle2
                    {
                      OFFSET -6.180828 -0.258836 -1.000895
                      CHANNELS 3 Zrotation Yrotation Xrotation
                      JOINT RightHandMiddle3
                      {
                        OFFSET -4.348901 0.0 -0.0
                        CHANNELS 3 Zrotation Yrotation Xrotation
                        JOINT RightHandMiddle4
                        {
                          OFFSET -3.00024 -4e-06 -2e-06
                          CHANNELS 3 Zrotation Yrotation Xrotation
                          JOINT RightHandMiddleEnd
                          {
                            OFFSET -2.30252 -0.29437 -0.031706
                            CHANNELS 3 Zrotation Yrotation Xrotation
                          }
                        }
                      }
                    }
                  }
                  JOINT RightHandRing1
                  {
                    OFFSET -2.88569 -0.067952 -0.308858
                    CHANNELS 3 Zrotation Yrotation Xrotation
                    JOINT RightHandRing2
                    {
                      OFFSET -5.854198 -0.48613 -1.373731
                      CHANNELS 3 Zrotation Yrotation Xrotation
                      JOINT RightHandRing3
                      {
                        OFFSET -4.33881 -4e-06 -0.0
                        CHANNELS 3 Zrotation Yrotation Xrotation
                        JOINT RightHandRing4
                        {
                          OFFSET -2.654903 -4e-06 4e-06
                          CHANNELS 3 Zrotation Yrotation Xrotation
                          JOINT RightHandRingEnd
                          {
                            OFFSET -1.933568 0.077527 -5.2e-05
                            CHANNELS 3 Zrotation Yrotation Xrotation
                          }
                        }
                      }
                    }
                  }
                  JOINT RightHandPinky1
                  {
                    OFFSET -2.866425 -0.342796 -1.584145
                    CHANNELS 3 Zrotation Yrotation Xrotation
                    JOINT RightHandPinky2
                    {
                      OFFSET -5.091371 -1.332055 -1.772385
                      CHANNELS 3 Zrotation Yrotation Xrotation
                      JOINT RightHandPinky3
                      {
                        OFFSET -3.062664 -4e-06 1e-06
                        CHANNELS 3 Zrotation Yrotation Xrotation
                        JOINT RightHandPinky4
                        {
                          OFFSET -1.546529 4e-06 -2e-06
                          CHANNELS 3 Zrotation Yrotation Xrotation
                          JOINT RightHandPinkyEnd
                          {
                            OFFSET -1.945119 -0.157718 0.057211
                            CHANNELS 3 Zrotation Yrotation Xrotation
                          }
                        }
                      }
                    }
                  }
                }
              }
            }
          }
        }
      }
    }
    JOINT LeftLeg
    {
      OFFSET 10.043214 -8.434526 2.595655
      CHANNELS 3 Zrotation Yrotation Xrotation
      JOINT LeftShin
      {
        OFFSET -1e-06 -43.221752 -0.802913
        CHANNELS 3 Zrotation Yrotation Xrotation
        JOINT LeftFoot
        {
          OFFSET 1e-06 -42.155094 -3.481523
          CHANNELS 3 Zrotation Yrotation Xrotation
          JOINT LeftToeBase
          {
            OFFSET 0.0 -5.059472 13.231529
            CHANNELS 3 Zrotation Yrotation Xrotation
            JOINT LeftToeEnd
            {
              OFFSET -0.009607 -1.647619 6.513017
              CHANNELS 3 Zrotation Yrotation Xrotation
            }
          }
        }
      }
    }
    JOINT RightLeg
    {
      OFFSET -10.047278 -8.29526 2.620317
      CHANNELS 3 Zrotation Yrotation Xrotation
      JOINT RightShin
      {
        OFFSET 1e-06 -43.362206 -0.805556
        CHANNELS 3 Zrotation Yrotation Xrotation
        JOINT RightFoot
        {
          OFFSET 2e-06 -42.117393 -3.478398
          CHANNELS 3 Zrotation Yrotation Xrotation
          JOINT RightToeBase
          {
            OFFSET -0.0 -5.079609 13.284196
            CHANNELS 3 Zrotation Yrotation Xrotation
            JOINT RightToeEnd
            {
              OFFSET 0.009532 -1.634378 6.460591
              CHANNELS 3 Zrotation Yrotation Xrotation
            }
          }
        }
      }
    }
  }
}
MOTION
Frames: 4
Frame Time: 0.03333333333333333
0.0 0.0 0.0 0.0 -0.0 0.0 -6.176541 88.001511 217.706116 -1.708516 6.15719 -6.428001 0.344668 0.729487 5.41167 -0.340829 0.774183 -2.628239 2.020253 0.059595 11.769749 14.36899 -2.067042 0.927071 -1.368439 -2.542019 -3.490073 2.794101 -4.612144 -18.908073 7.7e-05 -2.3e-05 6e-06 0.016479 0.116591 0.090211 0.732619 -3.630816 -10.680573 -0.697019 3.845347 -10.679332 -6.499826 -2.436233 16.388153 -56.495922 -8.553927 3.484838 -178.45253 -76.837692 178.133377 18.174332 -9.778701 37.849121 -5.882109 9.861291 0.702589 -10.936877 -0.360576 7.15621 1e-06 8.774829 -3e-06 -15.857543 19.085464 6.794433 -1.844033 2.498506 -2.507279 -10.163604 4.678946 4.62111 -20.976032 -4e-06 4e-06 -21.226295 2.451698 -3.594002 0.0 -6e-06 0.0 -1.362682 2.240799 -0.746322 -21.334925 0.584909 3.008327 -13.82122 -3e-06 4e-06 -23.887182 -0.249079 -0.839482 -60.020672 2.549084 -1.017515 -0.294025 1.679688 0.833256 -14.218215 0.093214 1.300582 -34.212067 -0.287565 0.967173 -20.033222 0.964538 1.212846 -1e-06 0.0 -0.0 -3.440389 0.788233 0.501655 -15.928192 -3.167312 2.99971 -6.338829 -1e-06 1e-06 -18.123453 3.648184 -4.905673 -3e-06 -1e-06 -2e-06 6.498447 13.523981 13.503873 43.821129 42.542 -13.096188 -176.694107 52.272469 -176.988785 -12.985984 8.522231 40.602852 2.243542 -5.255039 -3.18016 14.282904 -0.826593 6.952508 -5e-06 -12.690614 -1e-06 16.440004 -16.93136 2.315447 1.665667 -1.955922 -2.8783 4.727802 -4.170588 4.993927 11.020535 4e-06 -1e-06 12.109058 -3.735717 -2.866786 1e-06 1e-06 -1e-06 1.291986 -1.92855 -1.498091 14.80014 0.567472 3.865612 14.242584 -1.341735 -6.660663 19.631987 0.143928 -0.648243 47.867188 -1.087228 -6.331203 0.353029 -1.511151 -0.03194 20.222803 3.684314 2.316633 18.787287 7e-06 1e-06 10.751637 -0.479868 1.397908 0.0 -0.0 -0.0 3.273809 0.305947 -0.580109 21.486834 11.830385 2.266136 8.162932 3e-06 -1e-06 18.399097 -3.798987 -4.940577 3e-06 1e-06 -1e-06 6.958675 10.853227 -31.056047 0.012174 0.090635 62.247223 -7.578885 13.722245 -18.956009 1.670153 -2.045425 0.411446 -0.0 -1e-06 2e-06 -12.163294 -10.475325 -21.094061 0.362592 0.676266 58.629593 12.542747 4.228493 -20.298594 -1.498932 0.819853 0.280785 0.0 -0.0 -1e-06 
0.0 0.0 0.0 0.0 -0.0 0.0 -5.338148 88.023788 219.628571 -1.115197 5.818566 -6.666697 0.055189 0.726955 5.110902 -0.396976 0.888209 -2.736828 1.618804 0.043705 12.526201 12.69237 -1.873013 2.125191 -1.284411 -2.213645 -3.513458 2.865038 -4.358412 -19.345606 7.7e-05 -2.3e-05 6e-06 0.009143 0.097508 0.106291 0.701184 -3.643955 -10.610334 -0.681764 3.824663 -10.628391 -7.204606 -2.561793 16.371469 -56.025944 -14.086581 2.935438 -177.576996 -77.546455 177.543701 17.964481 -12.01851 36.161579 -5.882111 9.861288 0.702588 -10.936877 -0.360573 7.156207 -1e-06 8.774826 -1e-06 -15.733544 19.028463 6.857737 -1.844035 2.498506 -2.507279 -10.163604 4.678947 4.621109 -20.976036 -0.0 1e-06 -21.226301 2.451699 -3.594004 -0.0 -7e-06 -1e-06 -1.362683 2.240798 -0.746324 -21.334925 0.584913 3.008322 -13.82122 -1e-06 1e-06 -23.887182 -0.249078 -0.839486 -60.382095 2.596606 -1.068176 -0.294026 1.679688 0.833256 -14.218215 0.093217 1.30058 -34.212063 -0.287561 0.967164 -20.033222 0.964537 1.212839 2e-06 -1e-06 0.0 -3.44039 0.788234 0.501655 -15.928192 -3.167308 2.999706 -6.338829 -1e-06 -0.0 -18.123459 3.648185 -4.905675 -4e-06 0.0 -2e-06 8.280749 13.418062 15.022356 48.795364 40.672932 -12.141775 -177.719147 51.438988 -177.820114 -15.110426 11.251786 37.617657 2.243542 -5.25504 -3.180159 14.282896 -0.826596 6.952501 -0.0 -12.69061 -1e-06 16.236197 -17.029333 2.282054 1.665667 -1.955924 -2.878299 4.7278 -4.17059 4.993924 11.020529 0.0 -3e-06 12.109058 -3.735719 -2.866786 1e-06 -0.0 0.0 1.291987 -1.92855 -1.498089 14.800134 0.567467 3.865608 14.242579 -1.341738 -6.660662 19.631975 0.143925 -0.648248 47.482517 -1.022825 -6.348989 0.353028 -1.511151 -0.031941 20.222797 3.684309 2.31663 18.787273 3e-06 -3e-06 10.751631 -0.479869 1.397905 0.0 0.0 0.0 3.273808 0.305946 -0.580111 21.486816 11.830377 2.266133 8.16293 1e-06 -2e-06 18.39909 -3.798986 -4.940581 2e-06 0.0 -1e-06 6.30544 11.778043 -29.211807 0.066121 0.091954 62.708931 -7.660367 12.375954 -20.188635 1.65236 -2.007863 0.862257 -0.0 -1e-06 2e-06 -13.789168 -10.213642 -20.056114 0.394769 0.750806 60.227371 13.105929 4.576005 -18.065056 -1.487538 0.836923 -1.01857 -0.0 0.0 -0.0 
0.0 0.0 0.0 0.0 -0.0 0.0 -4.613773 88.797432 221.107147 -0.529682 5.696694 -6.360826 -0.289061 0.618614 4.791183 -0.485694 0.756413 -2.899836 1.003696 -0.258749 13.001247 11.107311 -1.457219 3.070622 -1.154029 -1.659556 -3.506322 2.665565 -3.848659 -19.59193 7.6e-05 -2.2e-05 6e-06 0.020047 0.119967 0.118664 0.694226 -3.617529 -10.552259 -0.654345 3.846946 -10.579046 -7.185116 -3.466816 16.257397 -54.312294 -18.940897 2.964562 -177.366211 -78.62336 177.600586 17.073685 -13.517596 34.430344 -5.882115 9.861295 0.702589 -10.936886 -0.360574 7.156216 -0.0 8.774833 1e-06 -15.860604 18.892122 6.765478 -1.844035 2.498507 -2.507279 -10.163612 4.678949 4.621113 -20.976051 -1e-06 2e-06 -21.226318 2.451701 -3.594005 -0.0 -6e-06 -0.0 -1.362684 2.2408 -0.746324 -21.334942 0.584912 3.008326 -13.821233 -1e-06 2e-06 -23.887203 -0.249077 -0.839486 -60.727253 2.57853 -1.107244 -0.294024 1.679687 0.833257 -14.218228 0.093217 1.300582 -34.212097 -0.287561 0.96717 -20.033241 0.964538 1.212844 1e-06 -1e-06 0.0 -3.440392 0.788235 0.501655 -15.928206 -3.167311 2.999711 -6.338834 -1e-06 0.0 -18.12347 3.648186 -4.905677 -3e-06 -2e-06 -3e-06 8.947839 12.80891 15.966587 51.219067 38.652458 -11.261318 -178.337296 49.054695 -178.466476 -15.649214 12.815137 35.876217 2.243543 -5.25504 -3.180158 14.282896 -0.826595 6.952505 -2e-06 -12.690609 0.0 16.255428 -17.11075 2.270439 1.665667 -1.955922 -2.878299 4.727801 -4.170589 4.993925 11.020531 3e-06 0.0 12.109057 -3.735717 -2.866785 1e-06 0.0 -1e-06 1.291986 -1.92855 -1.49809 14.800132 0.567468 3.865608 14.242579 -1.341737 -6.660661 19.631975 0.143925 -0.648245 47.555996 -1.059741 -6.224484 0.353029 -1.511151 -0.03194 20.222801 3.68431 2.31663 18.787281 5e-06 -1e-06 10.751633 -0.479869 1.397906 1e-06 1e-06 -0.0 3.273808 0.305947 -0.580112 21.486822 11.830377 2.266135 8.16293 3e-06 -0.0 18.399092 -3.798986 -4.940578 3e-06 0.0 -1e-06 5.622931 13.893865 -27.375727 0.026907 0.109806 61.176521 -7.211686 10.221981 -19.973162 1.652861 -1.935267 1.155431 0.0 -1e-06 2e-06 -15.111131 -9.990981 -19.405842 0.395516 0.787875 60.751862 13.485151 3.812316 -13.331863 -1.477582 0.843887 -2.795471 0.0 0.0 -2e-06 
0.0 0.0 0.0 0.0 -0.0 0.0 -4.03172 90.170074 222.23851 0.177726 5.519786 -5.613024 -0.708976 0.466604 4.522724 -0.595986 0.405353 -3.127489 0.130928 -0.724513 13.091062 9.803783 -0.975233 3.890537 -0.987655 -1.145697 -3.506377 2.153307 -2.838178 -19.59112 7.7e-05 -2.2e-05 6e-06 0.030417 0.125748 0.128391 0.701789 -3.609079 -10.52842 -0.642689 3.852248 -10.558642 -6.433514 -5.008133 15.917954 -50.7257 -21.76923 3.325103 -178.498734 -79.338921 178.835709 15.87497 -14.215003 32.916092 -5.882106 9.861286 0.702591 -10.936872 -0.360576 7.156207 0.0 8.774826 -1e-06 -16.021215 18.60087 6.507509 -1.844032 2.498505 -2.507277 -10.163599 4.678945 4.621111 -20.976023 -3e-06 3e-06 -21.226286 2.451698 -3.594 1e-06 -7e-06 -1e-06 -1.362681 2.240798 -0.746324 -21.334913 0.58491 3.008327 -13.821213 -2e-06 4e-06 -23.887169 -0.249078 -0.839482 -60.588341 2.528189 -1.219592 -0.294024 1.679687 0.833256 -14.218208 0.093215 1.300583 -34.212048 -0.287562 0.967173 -20.033211 0.964538 1.212844 1e-06 0.0 0.0 -3.440388 0.788233 0.501656 -15.928185 -3.167308 2.99971 -6.338826 0.0 1e-06 -18.123444 3.648184 -4.905671 -3e-06 -2e-06 -2e-06 8.120739 11.690597 15.977111 51.104305 37.173115 -10.163277 -178.543015 45.625778 -178.659973 -13.829877 13.47938 34.951443 2.243542 -5.255037 -3.180158 14.282896 -0.826593 6.952505 -2e-06 -12.690609 -2e-06 16.298964 -17.241098 2.321326 1.665667 -1.955922 -2.8783 4.727801 -4.170587 4.993924 11.020529 5e-06 -2e-06 12.109056 -3.735713 -2.866785 2e-06 0.0 1e-06 1.291986 -1.928549 -1.498089 14.800138 0.56747 3.86561 14.242577 -1.341736 -6.660657 19.631973 0.143926 -0.648243 47.77636 -1.11029 -6.112582 0.35303 -1.511151 -0.031942 20.222801 3.684312 2.316631 18.787281 7e-06 1e-06 10.751633 -0.479868 1.397908 0.0 2e-06 -1e-06 3.273807 0.305947 -0.580111 21.486824 11.83038 2.266135 8.162929 3e-06 -1e-06 18.399088 -3.798984 -4.940576 4e-06 0.0 -1e-06 4.784144 16.506723 -25.345453 -0.027818 0.146629 57.701424 -6.571867 8.074641 -18.840544 1.657831 -1.851664 1.354326 0.0 -0.0 2e-06 -16.128523 -9.377966 -18.933954 0.353795 0.771691 59.909618 13.544447 1.903623 -7.41004 -1.484063 0.854854 -4.076721 0.0 0.0 -1e-06 
